<?xml version="1.0" standalone="no"?>
<!DOCTYPE svg PUBLIC "-//W3C//DTD SVG 20010904//EN"
 "http://www.w3.org/TR/2001/REC-SVG-20010904/DTD/svg10.dtd">
<svg version="1.0" xmlns="http://www.w3.org/2000/svg"
 width="50" height="50" viewBox="0 0 4000.000000 4000.000000"
 preserveAspectRatio="xMidYMid meet">

<g transform="translate(0.000000,4000.000000) scale(0.100000,-0.100000)"
fill="#000000" stroke="none">
<path d="M15815 29944 c-330 -50 -572 -169 -796 -393 -260 -260 -930 -1212
-1416 -2011 -1710 -2810 -2901 -6134 -3502 -9775 -139 -840 -269 -1870 -278
-2200 -14 -492 71 -1136 228 -1721 455 -1705 1502 -3131 3044 -4149 290 -191
520 -325 872 -507 133 -69 144 -77 184 -133 129 -182 351 -419 534 -571 101
-83 326 -234 419 -279 148 -73 353 -96 505 -59 192 48 406 208 555 417 26 37
50 67 52 67 3 0 69 -16 147 -36 478 -120 1010 -195 1757 -246 252 -17 1386
-17 1655 0 702 45 1250 122 1744 243 90 22 167 37 171 32 3 -4 29 -40 58 -79
62 -85 216 -235 294 -287 151 -99 268 -132 451 -125 153 6 237 33 392 125 215
128 396 273 586 469 101 104 243 275 297 357 22 32 50 51 175 113 494 248
1003 572 1432 912 231 184 412 347 671 607 l261 262 324 6 c602 13 1097 61
1519 148 316 66 457 109 805 246 1323 523 2342 1157 3130 1947 907 909 1420
1945 1536 3101 28 275 11 738 -36 1012 -65 372 -191 724 -339 947 -259 388
-695 561 -1195 471 -673 -120 -1409 -652 -2016 -1460 -225 -300 -333 -479
-617 -1020 -259 -492 -555 -942 -878 -1330 -206 -248 -550 -600 -550 -564 0 8
11 94 25 191 65 459 78 882 37 1228 -203 1737 -425 2979 -798 4451 l-96 377
36 70 c161 320 352 816 466 1212 151 524 260 1175 263 1565 2 129 -1 146 -26
220 -38 106 -85 182 -161 258 -74 73 -146 118 -248 155 -66 24 -87 27 -208 27
l-135 0 -175 -59 c-243 -81 -476 -174 -669 -267 -91 -44 -168 -76 -171 -72 -4
5 -13 24 -20 43 -8 19 -58 143 -113 275 -709 1719 -1571 3296 -2556 4675 -138
194 -373 506 -462 616 -213 262 -521 438 -854 490 -131 20 -376 15 -492 -11
-259 -57 -476 -172 -665 -354 -118 -113 -331 -391 -531 -693 -129 -195 -133
-199 -162 -194 -217 40 -954 89 -1335 89 -346 -1 -868 -33 -1195 -74 -101 -12
-161 -16 -163 -10 -10 29 -277 420 -397 581 -261 349 -460 508 -764 610 -150
51 -214 61 -401 65 -96 2 -188 1 -205 -1z m438 -418 c169 -50 300 -128 422
-251 130 -130 396 -498 593 -823 114 -187 136 -197 351 -163 235 37 520 62
916 81 121 5 261 12 311 15 162 8 837 -27 1154 -61 80 -8 203 -24 275 -35 223
-36 235 -30 375 196 203 329 441 657 575 791 143 144 301 228 506 270 122 25
333 15 452 -20 151 -45 292 -125 403 -229 121 -112 566 -715 911 -1232 839
-1258 1640 -2796 2228 -4278 l63 -158 -76 -51 c-478 -320 -870 -688 -1063
-998 -95 -153 -189 -378 -189 -451 0 -23 5 -29 21 -29 28 0 240 173 608 494
107 93 241 207 297 252 486 391 1067 685 1717 869 157 45 170 47 210 35 52
-15 104 -69 113 -116 19 -104 -69 -740 -162 -1159 -128 -578 -290 -1055 -568
-1668 -185 -409 -357 -850 -381 -980 -6 -31 -3 -40 20 -61 30 -28 46 -26 90
16 17 15 33 28 37 28 29 0 281 263 373 389 l40 55 28 -115 c15 -62 29 -121 31
-129 2 -8 6 -22 9 -30 8 -17 63 -248 113 -470 200 -885 359 -1762 483 -2655
76 -546 156 -1257 148 -1316 -3 -23 -26 -68 -61 -118 -32 -45 -54 -86 -51 -91
3 -6 -1 -7 -9 -4 -9 3 -16 1 -16 -5 0 -5 -9 -19 -21 -30 -12 -11 -18 -24 -14
-30 3 -7 2 -10 -3 -9 -5 2 -35 -30 -67 -71 -46 -58 -55 -75 -44 -83 11 -8 10
-9 -3 -4 -21 6 -74 -57 -62 -75 5 -9 2 -10 -9 -6 -18 7 -42 -24 -29 -38 4 -5
2 -5 -4 -2 -15 9 -38 -19 -28 -34 4 -7 3 -9 -4 -6 -5 4 -37 -23 -69 -60 -32
-37 -70 -81 -84 -98 -85 -97 -218 -245 -251 -279 -21 -21 -35 -42 -32 -47 3
-5 -2 -6 -10 -3 -12 5 -16 -1 -17 -22 -2 -44 -6 -62 -23 -126 -5 -15 -3 -36 4
-50 10 -21 10 -21 -3 -5 -15 18 -18 7 -32 -88 0 -5 -7 -23 -14 -40 -7 -16 -13
-45 -14 -62 -1 -18 -6 -33 -10 -33 -4 0 -7 -6 -6 -12 1 -7 0 -20 -4 -28 -24
-65 -66 -204 -62 -211 3 -4 2 -9 -2 -11 -11 -4 -76 -187 -77 -215 -1 -12 -3
-19 -5 -17 -2 2 -24 -47 -48 -109 -24 -61 -53 -131 -64 -154 -11 -23 -17 -48
-13 -55 4 -7 4 -10 0 -6 -8 7 -112 -196 -118 -229 -2 -10 -6 -20 -9 -23 -3 -3
-37 -61 -74 -130 -37 -69 -72 -131 -77 -137 -6 -7 -8 -20 -4 -28 3 -9 2 -14
-3 -11 -4 3 -37 -41 -71 -97 -82 -133 -212 -326 -269 -402 -26 -33 -57 -76
-70 -95 -13 -19 -30 -42 -37 -50 -8 -8 -37 -44 -66 -80 -28 -36 -67 -81 -86
-102 -19 -20 -31 -41 -27 -47 3 -6 2 -10 -3 -9 -5 2 -47 -37 -93 -87 -46 -49
-143 -151 -216 -226 -74 -74 -130 -139 -126 -144 5 -4 2 -5 -5 -1 -8 5 -40
-18 -90 -66 -261 -248 -683 -559 -1096 -808 -157 -95 -215 -146 -282 -251 -89
-138 -168 -234 -308 -374 -191 -191 -375 -337 -495 -394 -132 -62 -309 -67
-447 -11 -101 40 -117 52 -270 201 -112 109 -144 134 -213 168 -133 64 -264
75 -433 36 -82 -19 -566 -100 -718 -120 -457 -60 -864 -96 -1315 -114 -203 -9
-883 -6 -1030 3 -44 3 -125 8 -180 11 -556 32 -1158 108 -1720 216 -187 37
-278 36 -386 -4 -107 -38 -154 -72 -287 -204 -185 -183 -276 -227 -467 -228
-189 0 -292 48 -535 252 -209 176 -386 370 -505 554 -78 120 -129 164 -325
282 -563 339 -1095 773 -1490 1217 -47 52 -93 104 -104 115 -32 35 -249 310
-297 376 -89 123 -288 429 -312 479 -4 8 -17 31 -28 50 -53 86 -209 394 -239
468 -7 17 -15 32 -19 32 -4 0 -7 8 -8 18 -3 30 -99 242 -107 235 -4 -4 -4 0
-1 9 4 9 1 27 -6 40 -7 13 -14 25 -14 28 -4 28 -100 297 -109 302 -6 4 -8 10
-4 13 3 4 -5 46 -19 93 -49 174 -84 308 -89 342 -2 19 -9 49 -13 65 -5 17 -12
48 -16 69 -4 22 -13 49 -21 60 -14 20 -14 20 -15 1 -1 -20 -1 -20 -6 0 -8 31
-43 64 -62 58 -13 -4 -13 -3 -2 5 12 8 5 20 -34 60 -27 28 -54 48 -59 45 -5
-3 -6 -2 -3 4 3 5 -6 23 -21 39 -72 80 -138 157 -145 170 -4 8 -13 14 -18 14
-6 0 -7 -5 -4 -10 3 -6 1 -10 -5 -10 -7 0 -9 7 -6 16 6 15 -25 61 -81 124 -13
14 -23 28 -23 32 0 5 -5 8 -11 8 -6 0 -8 -7 -5 -17 4 -10 3 -14 -1 -9 -4 4 -8
18 -8 29 0 13 -6 22 -15 22 -8 1 -14 7 -12 14 2 8 -14 34 -36 60 -21 25 -48
61 -61 79 -25 35 -41 38 -20 3 7 -11 10 -24 5 -28 -4 -4 -12 0 -17 10 -6 9
-21 17 -34 17 -14 0 -25 4 -25 9 0 4 11 6 24 4 27 -6 45 25 24 42 -7 5 -21 22
-31 37 -9 16 -23 27 -30 25 -6 -1 -12 8 -12 21 0 12 -11 32 -23 45 -21 20 -23
21 -17 2 5 -15 4 -17 -3 -6 -6 8 -8 20 -5 28 8 19 -14 16 -26 -4 -8 -15 -10
-13 -16 12 -3 17 -10 37 -14 45 -23 48 -4 283 75 920 359 2910 1084 5629 2157
8090 317 728 655 1415 1025 2080 471 850 967 1619 1520 2360 297 398 419 510
638 589 143 52 203 61 374 57 131 -3 169 -8 243 -30z m16277 -11066 c203 -58
340 -180 458 -410 172 -332 256 -738 256 -1235 0 -222 -15 -452 -31 -478 -6
-10 -13 -75 -13 -116 0 -21 -2 -22 -17 -10 -15 13 -15 12 -4 -9 8 -15 10 -38
5 -65 -6 -35 -8 -39 -15 -22 -6 13 -7 4 -4 -28 2 -30 -3 -69 -15 -105 -10 -31
-19 -48 -20 -37 -1 12 -4 15 -7 7 -3 -7 0 -19 6 -26 8 -9 8 -22 -1 -47 -12
-37 -27 -51 -45 -44 -8 2 -10 -2 -6 -13 6 -15 3 -14 -15 2 -14 12 -22 31 -22
50 0 24 -3 27 -10 16 -5 -8 -7 -22 -5 -30 3 -11 -4 -16 -24 -17 l-30 -2 17 29
c9 15 20 26 24 24 4 -3 5 3 1 12 -5 13 -3 15 8 9 8 -4 11 -5 7 -1 -4 5 -2 20
3 35 14 36 -3 15 -32 -39 -13 -25 -30 -53 -37 -62 -8 -9 -11 -25 -7 -36 3 -12
1 -24 -6 -28 -9 -5 -10 -2 -6 12 7 18 6 18 -8 -1 -15 -18 -14 -21 5 -29 11 -5
20 -13 20 -18 0 -5 -5 -6 -12 -2 -7 4 -8 3 -4 -5 8 -13 -42 -67 -52 -56 -3 3
2 11 10 18 20 15 33 57 19 57 -6 0 -11 -4 -11 -9 0 -5 -6 -16 -13 -23 -32 -34
-108 -158 -102 -168 4 -6 1 -9 -6 -8 -15 3 -21 -39 -8 -48 5 -3 9 -10 9 -17 0
-6 -6 -2 -14 8 -8 11 -12 24 -9 30 14 23 -8 -4 -36 -45 -16 -24 -27 -51 -24
-59 4 -13 3 -13 -5 -3 -7 11 -14 6 -30 -20 -19 -30 -35 -51 -72 -96 -6 -7 -8
-18 -4 -25 4 -6 4 -9 -1 -5 -13 12 -42 -30 -40 -57 2 -14 -1 -23 -5 -20 -5 3
-7 13 -4 23 6 19 -9 4 -61 -64 -29 -37 -85 -104 -95 -114 -3 -3 -35 -39 -70
-80 -134 -155 -482 -493 -650 -631 -36 -30 -67 -56 -70 -59 -10 -11 -156 -126
-235 -185 -44 -33 -82 -62 -85 -66 -3 -3 -36 -28 -75 -54 -38 -27 -99 -70
-135 -95 -154 -109 -515 -333 -685 -425 -341 -186 -612 -320 -910 -450 -167
-73 -269 -115 -635 -260 -228 -91 -536 -167 -910 -225 -157 -24 -602 -72 -609
-65 -2 3 30 76 71 162 167 348 330 777 423 1113 14 52 28 103 31 112 3 9 36
39 73 67 206 149 502 423 726 671 456 504 809 1024 1177 1735 153 295 271 495
411 697 557 801 1266 1356 1877 1468 136 25 311 21 420 -10z m577 -2662 c-8
-24 -12 -28 -15 -15 -2 10 2 24 8 32 19 22 20 18 7 -17z m-37 -48 c10 6 11 10
3 10 -7 0 -13 10 -13 23 1 21 1 21 12 2 6 -11 16 -23 22 -27 7 -5 6 -8 -3 -8
-9 0 -11 -7 -8 -21 4 -16 3 -18 -9 -8 -11 9 -14 8 -15 -7 -2 -36 -17 29 -17
71 l1 40 6 -42 c5 -35 9 -41 21 -33z m0 -70 c11 -7 11 -10 2 -10 -7 0 -10 -4
-7 -10 3 -5 1 -18 -5 -27 -11 -17 -11 -17 -6 0 3 10 1 27 -4 38 -12 21 -4 24
20 9z m-209 -33 c-10 -9 -11 -8 -5 6 3 10 9 15 12 12 3 -3 0 -11 -7 -18z m139
-56 c0 -6 -4 -13 -10 -16 -5 -3 -10 -16 -10 -28 0 -17 -2 -19 -9 -8 -6 9 -5
23 2 38 10 23 27 31 27 14z m40 -20 c0 -29 -15 -33 -16 -5 -1 13 2 24 7 24 5
0 9 -9 9 -19z m-36 -26 c-3 -14 -2 -24 2 -23 5 2 10 0 12 -4 5 -17 1 -25 -10
-25 -13 0 -21 41 -13 65 8 23 15 12 9 -13z m-32 -67 c-7 -7 -12 -8 -12 -2 0
14 12 26 19 19 2 -3 -1 -11 -7 -17z m-5317 -108 c-11 -17 -20 -11 -21 15 -2
21 0 22 13 10 8 -8 11 -19 8 -25z m5312 8 c-3 -8 -6 -5 -6 6 -1 11 2 17 5 13
3 -3 4 -12 1 -19z m-22702 -8 c3 -5 1 -10 -4 -10 -6 0 -11 5 -11 10 0 6 2 10
4 10 3 0 8 -4 11 -10z m-25 -35 c0 -14 -2 -25 -4 -25 -2 0 -6 11 -8 25 -3 14
-1 25 3 25 5 0 9 -11 9 -25z m17357 -22 c-3 -10 -5 -4 -5 12 0 17 2 24 5 18 2
-7 2 -21 0 -30z m5337 -21 c-4 -9 -6 -24 -5 -32 2 -13 1 -13 -8 0 -9 12 -11
13 -11 1 0 -8 -3 -11 -7 -8 -3 4 2 16 11 26 10 11 15 25 11 30 -3 6 -3 17 2
24 11 17 17 -19 7 -41z m-5360 2 c4 -10 1 -14 -6 -12 -15 5 -23 28 -10 28 5 0
13 -7 16 -16z m46 -24 c0 -5 -5 -10 -11 -10 -5 0 -7 5 -4 10 3 6 8 10 11 10 2
0 4 -4 4 -10z m36 -5 c-4 -28 -56 -60 -56 -34 0 5 9 9 20 9 13 0 20 7 20 20 0
11 4 20 9 20 5 0 8 -7 7 -15z m21 -17 c-3 -7 -5 -2 -5 12 0 14 2 19 5 13 2 -7
2 -19 0 -25z m-17337 -9 c0 -5 -4 -9 -10 -9 -5 0 -10 7 -10 16 0 8 5 12 10 9
6 -3 10 -10 10 -16z m17292 -41 c-9 -9 -15 -9 -24 0 -9 9 -7 12 12 12 19 0 21
-3 12 -12z m36 -19 c-3 -8 -7 -3 -11 10 -4 17 -3 21 5 13 5 -5 8 -16 6 -23z
m-173 1 c3 -5 1 -10 -4 -10 -6 0 -11 5 -11 10 0 6 2 10 4 10 3 0 8 -4 11 -10z
m137 -54 c7 4 8 2 4 -5 -12 -18 -26 -2 -25 27 l2 27 4 -28 c3 -16 9 -25 15
-21z m-162 24 c0 -5 -2 -10 -4 -10 -3 0 -8 5 -11 10 -3 6 -1 10 4 10 6 0 11
-4 11 -10z m195 1 c3 -5 1 -12 -5 -16 -5 -3 -10 1 -10 9 0 18 6 21 15 7z
m-17221 -16 c3 -9 0 -15 -9 -15 -8 0 -15 7 -15 15 0 8 4 15 9 15 5 0 11 -7 15
-15z m17066 11 c0 -3 -4 -8 -10 -11 -5 -3 -10 -1 -10 4 0 6 5 11 10 11 6 0 10
-2 10 -4z m-70 -20 c0 -3 -4 -8 -10 -11 -5 -3 -10 -1 -10 4 0 6 5 11 10 11 6
0 10 -2 10 -4z m5423 -22 c-4 -12 -8 -13 -14 -3 -9 15 -2 32 11 24 5 -3 6 -13
3 -21z m-5206 -16 c-3 -7 -5 -2 -5 12 0 14 2 19 5 13 2 -7 2 -19 0 -25z
m-17152 -9 c-5 -14 -2 -25 6 -30 10 -6 8 -8 -7 -7 -16 2 -19 7 -16 30 2 15 9
28 14 28 5 0 6 -10 3 -21z m17115 -1 c0 -19 -2 -20 -10 -8 -13 19 -13 30 0 30
6 0 10 -10 10 -22z m-202 -10 c-8 -12 -20 -24 -27 -26 -7 -2 -3 7 10 22 28 32
37 34 17 4z m219 -10 c-3 -7 -5 -2 -5 12 0 14 2 19 5 13 2 -7 2 -19 0 -25z
m-257 7 c-7 -9 -15 -13 -17 -11 -7 7 7 26 19 26 6 0 6 -6 -2 -15z m277 -27
c-3 -8 -6 -5 -6 6 -1 11 2 17 5 13 3 -3 4 -12 1 -19z m-27 -9 c0 8 2 12 5 9 3
-3 2 -13 -1 -22 -5 -14 -9 -15 -15 -4 -5 7 -9 18 -9 23 0 6 5 3 10 -5 8 -12
10 -12 10 -1z m-279 -32 c-10 -9 -11 -8 -5 6 3 10 9 15 12 12 3 -3 0 -11 -7
-18z m302 -17 c-3 -11 -7 -20 -9 -20 -2 0 -4 9 -4 20 0 11 4 20 9 20 5 0 7 -9
4 -20z m-17348 -118 c-5 -5 -25 69 -24 88 0 8 7 -7 14 -35 8 -27 12 -51 10
-53z m12 66 c-3 -7 -5 -2 -5 12 0 14 2 19 5 13 2 -7 2 -19 0 -25z m-45 -28 c3
-19 0 -30 -7 -30 -6 0 -11 10 -9 23 1 12 3 25 3 30 2 17 9 5 13 -23z m413 -28
c-2 -3 -11 0 -18 6 -8 7 -16 10 -18 7 -3 -2 -5 5 -5 15 0 19 1 18 23 -2 13
-12 21 -24 18 -26z m16580 18 c-3 -5 -12 -10 -18 -10 -7 0 -6 4 3 10 19 12 23
12 15 0z m-16613 -52 c-8 -8 -9 -4 -5 13 4 13 8 18 11 10 2 -7 -1 -18 -6 -23z
m-369 -36 c4 -5 1 -9 -6 -9 -7 0 -13 16 -14 36 -1 33 -1 34 7 9 4 -14 10 -31
13 -36z m33 -10 c1 -42 1 -44 -7 -17 -7 24 -4 65 4 65 1 0 3 -21 3 -48z
m16874 45 c0 -2 -9 -12 -20 -22 -24 -21 -27 -14 -4 9 15 15 24 20 24 13z m432
-20 c3 -13 1 -32 -3 -43 -5 -13 -8 -7 -8 24 -1 46 4 55 11 19z m-16934 1 c-2
-6 -10 -14 -16 -16 -7 -2 -10 2 -6 12 7 18 28 22 22 4z m22005 -43 c-3 -9 -8
-14 -10 -11 -3 3 -2 9 2 15 9 16 15 13 8 -4z m-21923 -16 c0 -5 -4 -9 -10 -9
-5 0 -10 7 -10 16 0 8 5 12 10 9 6 -3 10 -10 10 -16z m-481 -73 c2 -45 -6 -27
-12 29 -4 34 -3 42 3 25 4 -14 8 -38 9 -54z m16811 -16 c0 -5 -5 -10 -11 -10
-5 0 -7 5 -4 10 3 6 8 10 11 10 2 0 4 -4 4 -10z m-16793 -122 c-2 -13 -4 -5
-4 17 -1 22 1 32 4 23 2 -10 2 -28 0 -40z m16623 -22 c0 -3 -4 -8 -10 -11 -5
-3 -10 -1 -10 4 0 6 5 11 10 11 6 0 10 -2 10 -4z m5603 -11 c-3 -9 -8 -14 -10
-11 -3 3 -2 9 2 15 9 16 15 13 8 -4z m-4961 -37 c-6 -6 -7 0 -4 19 5 21 7 23
10 9 2 -10 0 -22 -6 -28z m-16552 18 c9 -12 8 -15 -8 -13 -12 0 -18 6 -15 14
6 16 8 16 23 -1z m16520 -31 c0 -5 -5 -3 -10 5 -5 8 -10 20 -10 25 0 6 5 3 10
-5 5 -8 10 -19 10 -25z m7 -37 c-3 -8 -6 -5 -6 6 -1 11 2 17 5 13 3 -3 4 -12
1 -19z m-16496 -15 c-12 -20 -14 -14 -5 12 4 9 9 14 11 11 3 -2 0 -13 -6 -23z
m37 -28 c-3 -3 -9 2 -12 12 -6 14 -5 15 5 6 7 -7 10 -15 7 -18z m-728 11 c0
-3 -4 -8 -10 -11 -5 -3 -10 -1 -10 4 0 6 5 11 10 11 6 0 10 -2 10 -4z m17184
-91 c5 -22 4 -26 -4 -15 -5 8 -10 24 -10 34 0 26 6 18 14 -19z m-747 -107 c-3
-8 -6 -5 -6 6 -1 11 2 17 5 13 3 -3 4 -12 1 -19z m-20 -90 c-3 -8 -6 -5 -6 6
-1 11 2 17 5 13 3 -3 4 -12 1 -19z m-16350 -115 c-3 -10 -5 -4 -5 12 0 17 2
24 5 18 2 -7 2 -21 0 -30z m41 -8 c-3 -3 -9 2 -12 12 -6 14 -5 15 5 6 7 -7 10
-15 7 -18z m739 -107 c-3 -8 -6 -5 -6 6 -1 11 2 17 5 13 3 -3 4 -12 1 -19z
m-740 -40 c-3 -7 -5 -2 -5 12 0 14 2 19 5 13 2 -7 2 -19 0 -25z m16934 -81
c-10 -9 -11 -8 -5 6 3 10 9 15 12 12 3 -3 0 -11 -7 -18z m-78 -272 c-3 -9 -8
-14 -10 -11 -3 3 -2 9 2 15 9 16 15 13 8 -4z m-16139 -1243 c3 -5 -1 -9 -9 -9
-8 0 -12 4 -9 9 3 4 7 8 9 8 2 0 6 -4 9 -8z m387 -609 c13 -16 12 -17 -3 -4
-17 13 -22 21 -14 21 2 0 10 -8 17 -17z m11899 -2267 c0 -2 -8 -10 -17 -17
-16 -13 -17 -12 -4 4 13 16 21 21 21 13z"/>
<path d="M16144 25070 c-358 -94 -632 -490 -695 -1003 -15 -123 -7 -380 15
-502 23 -122 86 -307 143 -418 276 -535 811 -655 1193 -267 507 514 470 1600
-69 2046 -172 143 -389 196 -587 144z m558 -436 c153 -77 250 -276 249 -509 0
-185 -53 -327 -161 -436 -75 -76 -128 -99 -224 -99 -155 0 -293 137 -353 351
-13 47 -17 98 -17 194 1 112 4 141 27 210 86 262 289 385 479 289z"/>
<path d="M21749 24538 c-496 -36 -1016 -391 -1302 -890 -64 -110 -78 -153 -68
-200 11 -47 26 -72 61 -102 62 -52 145 -46 215 14 51 44 159 83 336 122 147
32 430 32 567 0 208 -48 417 -155 674 -345 82 -61 120 -71 138 -37 14 26 -11
85 -85 195 -224 337 -614 542 -1060 559 -55 3 -99 7 -98 11 4 13 133 113 209
162 270 172 550 243 972 243 79 0 95 3 112 20 57 57 -14 123 -202 189 -153 53
-297 72 -469 59z"/>
<path d="M18736 23489 c-168 -25 -358 -96 -396 -148 -80 -114 76 -280 329
-350 303 -84 664 -19 832 149 72 71 90 122 62 178 -10 20 -33 47 -51 59 -67
44 -225 93 -367 112 -89 13 -323 12 -409 0z"/>
<path d="M18925 22715 c-5 -2 -23 -6 -39 -10 -19 -4 -81 -56 -180 -153 -222
-217 -322 -276 -461 -277 -71 0 -88 4 -155 36 -41 20 -118 68 -170 107 -52 40
-102 72 -111 72 -9 0 -24 -9 -34 -20 -16 -18 -17 -25 -6 -63 46 -153 184 -323
317 -390 l71 -36 32 -86 c100 -263 294 -549 497 -733 100 -90 159 -117 259
-117 112 0 164 26 289 145 206 198 361 431 466 700 l38 95 66 35 c127 67 237
188 297 328 31 72 36 111 17 130 -23 23 -56 11 -126 -46 -239 -195 -399 -212
-607 -64 -84 59 -157 127 -235 217 -41 48 -91 95 -110 105 -35 18 -97 31 -115
25z"/>
<path d="M18785 20890 c-176 -46 -653 -261 -990 -445 -209 -115 -409 -236
-604 -366 l-175 -117 -56 112 c-119 233 -228 385 -388 537 -152 145 -237 193
-256 143 -3 -8 56 -171 130 -362 170 -432 210 -541 267 -717 100 -309 177
-612 177 -697 0 -163 -110 -304 -268 -344 -59 -14 -75 -14 -195 1 -377 46
-704 133 -1442 380 -586 196 -696 229 -729 214 -30 -14 -50 -51 -42 -76 10
-33 222 -233 336 -317 201 -150 453 -284 715 -381 72 -27 134 -52 138 -56 5
-3 -25 -55 -66 -115 -294 -429 -541 -934 -702 -1434 -312 -971 -362 -2162
-129 -3090 391 -1561 1529 -2703 3089 -3100 446 -113 844 -160 1360 -160 858
0 1579 161 2260 504 881 445 1560 1172 1954 2093 188 440 294 881 343 1428 14
156 17 772 5 960 -89 1417 -683 2684 -1749 3731 -510 501 -1089 919 -1779
1286 -315 167 -769 366 -898 394 -91 19 -221 17 -306 -6z m311 -405 c197 -74
590 -260 819 -388 1195 -666 2090 -1542 2633 -2577 67 -129 205 -430 200 -436
-2 -1 -39 63 -83 143 -352 640 -852 1236 -1461 1740 -239 198 -702 525 -824
582 -53 25 -63 26 -235 27 -197 1 -280 13 -457 65 -261 77 -514 206 -695 351
-69 56 -138 144 -148 188 l-6 29 -78 -28 c-371 -135 -914 -413 -1346 -688 -99
-63 -184 -115 -189 -116 -4 -1 -19 36 -32 83 -13 47 -26 94 -29 105 -5 17 17
36 131 114 447 309 963 588 1444 782 181 73 216 76 356 24z"/>
<path d="M26845 20180 c-3 -5 -1 -10 4 -10 6 0 11 5 11 10 0 6 -2 10 -4 10 -3
0 -8 -4 -11 -10z"/>
<path d="M26614 19938 l-19 -23 23 19 c21 18 27 26 19 26 -2 0 -12 -10 -23
-22z"/>
<path d="M26740 19820 c-9 -6 -10 -10 -3 -10 6 0 15 5 18 10 8 12 4 12 -15 0z"/>
<path d="M26356 19717 c3 -10 9 -15 12 -12 3 3 0 11 -7 18 -10 9 -11 8 -5 -6z"/>
<path d="M10232 15465 c3 -5 8 -21 10 -35 2 -20 5 -22 10 -8 4 10 0 24 -10 35
-9 11 -14 14 -10 8z"/>
<path d="M33157 16183 c-4 -3 -7 -16 -6 -27 0 -19 1 -19 10 3 10 24 8 36 -4
24z"/>
<path d="M33125 16120 c-3 -5 4 -26 15 -47 12 -21 18 -29 14 -18 -4 11 -7 32
-6 48 1 27 -11 36 -23 17z"/>
<path d="M33092 16090 c-10 -17 -9 -23 9 -41 l21 -21 -8 24 c-4 12 -7 31 -6
41 1 22 0 21 -16 -3z"/>
<path d="M33063 16033 c-3 -10 -9 -22 -11 -28 -3 -5 1 -5 9 2 8 6 18 11 22 11
15 0 15 7 1 20 -12 11 -15 10 -21 -5z"/>
<path d="M33135 16023 c2 -18 0 -33 -5 -33 -6 0 -10 -4 -10 -10 0 -5 4 -10 9
-10 15 0 20 27 10 57 -9 28 -9 28 -4 -4z"/>
<path d="M33105 16010 c-3 -5 -1 -10 4 -10 6 0 11 5 11 10 0 6 -2 10 -4 10 -3
0 -8 -4 -11 -10z"/>
</g>
</svg>
